# xmcd
#
# Track frame offsets:
#	150
#	20841
#	41575
#	58726
#	74439
#	92427
#	110786
#	129182
#	145740
#	165788
#	182641
#	201450
#	216361
#
# Disc length: 3076 seconds
# Revision: 0
# Processed by: cddbd v1.5.2PL0 Copyright (c) Steve Scherf et al.
# Submitted via: dBpowerAMP V12.0
#
DISCID=bd0c020d
DTITLE=The Cowboy Way - Go West
DYEAR=2018
DGENRE=Country
TTITLE0=It's a Cowboy I Will Be
TTITLE1=Goin 'Home
TTITLE2=My Irish Flower
TTITLE3=Looks Like Love To Me
TTITLE4=Fool's Gold
TTITLE5=Let's Ride
TTITLE6=Voice Of the Big Guitar
TTITLE7=I Make My Livin' In the Saddle
TTITLE8=Flow Rivers Flow
TTITLE9=Ten Below Zero
TTITLE10=The Best Horse
TTITLE11=What Price Freedom
TTITLE12=Go West
EXTD=
EXTT0=
EXTT1=
EXTT2=
EXTT3=
EXTT4=
EXTT5=
EXTT6=
EXTT7=
EXTT8=
EXTT9=
EXTT10=
EXTT11=
EXTT12=
PLAYORDER=
